<?xml version="1.0" ?>
<svg xmlns="http://www.w3.org/2000/svg" width="220" height="140" viewBox="0 0 220 140">
  <rect x="0" y="116" width="220" height="24" fill="#b59d7d"/>
  <rect x="20" y="60" width="180" height="56" fill="#d6ccb8" stroke="#8d7a64" stroke-width="3"/>
  <g fill="#c5b49c">
    <rect x="22" y="63" width="8" height="6"/>
    <rect x="32" y="63" width="8" height="6"/>
    <rect x="42" y="63" width="8" height="6"/>
    <rect x="52" y="63" width="8" height="6"/>
    <rect x="62" y="63" width="8" height="6"/>
    <rect x="72" y="63" width="8" height="6"/>
    <rect x="82" y="63" width="8" height="6"/>
    <rect x="92" y="63" width="8" height="6"/>
    <rect x="102" y="63" width="8" height="6"/>
    <rect x="112" y="63" width="8" height="6"/>
    <rect x="122" y="63" width="8" height="6"/>
    <rect x="132" y="63" width="8" height="6"/>
    <rect x="142" y="63" width="8" height="6"/>
    <rect x="152" y="63" width="8" height="6"/>
    <rect x="162" y="63" width="8" height="6"/>
    <rect x="172" y="63" width="8" height="6"/>
    <rect x="182" y="63" width="8" height="6"/>
    <rect x="27" y="71" width="8" height="6"/>
    <rect x="37" y="71" width="8" height="6"/>
    <rect x="47" y="71" width="8" height="6"/>
    <rect x="57" y="71" width="8" height="6"/>
    <rect x="67" y="71" width="8" height="6"/>
    <rect x="77" y="71" width="8" height="6"/>
    <rect x="87" y="71" width="8" height="6"/>
    <rect x="97" y="71" width="8" height="6"/>
    <rect x="107" y="71" width="8" height="6"/>
    <rect x="117" y="71" width="8" height="6"/>
    <rect x="127" y="71" width="8" height="6"/>
    <rect x="137" y="71" width="8" height="6"/>
    <rect x="147" y="71" width="8" height="6"/>
    <rect x="157" y="71" width="8" height="6"/>
    <rect x="167" y="71" width="8" height="6"/>
    <rect x="177" y="71" width="8" height="6"/>
    <rect x="187" y="71" width="8" height="6"/>
    <rect x="22" y="79" width="8" height="6"/>
    <rect x="32" y="79" width="8" height="6"/>
    <rect x="42" y="79" width="8" height="6"/>
    <rect x="52" y="79" width="8" height="6"/>
    <rect x="62" y="79" width="8" height="6"/>
    <rect x="72" y="79" width="8" height="6"/>
    <rect x="82" y="79" width="8" height="6"/>
    <rect x="92" y="79" width="8" height="6"/>
    <rect x="102" y="79" width="8" height="6"/>
    <rect x="112" y="79" width="8" height="6"/>
    <rect x="122" y="79" width="8" height="6"/>
    <rect x="132" y="79" width="8" height="6"/>
    <rect x="142" y="79" width="8" height="6"/>
    <rect x="152" y="79" width="8" height="6"/>
    <rect x="162" y="79" width="8" height="6"/>
    <rect x="172" y="79" width="8" height="6"/>
    <rect x="182" y="79" width="8" height="6"/>
    <rect x="27" y="87" width="8" height="6"/>
    <rect x="37" y="87" width="8" height="6"/>
    <rect x="47" y="87" width="8" height="6"/>
    <rect x="57" y="87" width="8" height="6"/>
    <rect x="67" y="87" width="8" height="6"/>
    <rect x="77" y="87" width="8" height="6"/>
    <rect x="87" y="87" width="8" height="6"/>
    <rect x="97" y="87" width="8" height="6"/>
    <rect x="107" y="87" width="8" height="6"/>
    <rect x="117" y="87" width="8" height="6"/>
    <rect x="127" y="87" width="8" height="6"/>
    <rect x="137" y="87" width="8" height="6"/>
    <rect x="147" y="87" width="8" height="6"/>
    <rect x="157" y="87" width="8" height="6"/>
    <rect x="167" y="87" width="8" height="6"/>
    <rect x="177" y="87" width="8" height="6"/>
    <rect x="187" y="87" width="8" height="6"/>
    <rect x="22" y="95" width="8" height="6"/>
    <rect x="32" y="95" width="8" height="6"/>
    <rect x="42" y="95" width="8" height="6"/>
    <rect x="52" y="95" width="8" height="6"/>
    <rect x="62" y="95" width="8" height="6"/>
    <rect x="72" y="95" width="8" height="6"/>
    <rect x="82" y="95" width="8" height="6"/>
    <rect x="92" y="95" width="8" height="6"/>
    <rect x="102" y="95" width="8" height="6"/>
    <rect x="112" y="95" width="8" height="6"/>
    <rect x="122" y="95" width="8" height="6"/>
    <rect x="132" y="95" width="8" height="6"/>
    <rect x="142" y="95" width="8" height="6"/>
    <rect x="152" y="95" width="8" height="6"/>
    <rect x="162" y="95" width="8" height="6"/>
    <rect x="172" y="95" width="8" height="6"/>
    <rect x="182" y="95" width="8" height="6"/>
    <rect x="27" y="103" width="8" height="6"/>
    <rect x="37" y="103" width="8" height="6"/>
    <rect x="47" y="103" width="8" height="6"/>
    <rect x="57" y="103" width="8" height="6"/>
    <rect x="67" y="103" width="8" height="6"/>
    <rect x="77" y="103" width="8" height="6"/>
    <rect x="87" y="103" width="8" height="6"/>
    <rect x="97" y="103" width="8" height="6"/>
    <rect x="107" y="103" width="8" height="6"/>
    <rect x="117" y="103" width="8" height="6"/>
    <rect x="127" y="103" width="8" height="6"/>
    <rect x="137" y="103" width="8" height="6"/>
    <rect x="147" y="103" width="8" height="6"/>
    <rect x="157" y="103" width="8" height="6"/>
    <rect x="167" y="103" width="8" height="6"/>
    <rect x="177" y="103" width="8" height="6"/>
    <rect x="187" y="103" width="8" height="6"/>
  </g>
</svg>
