<?xml version="1.0" ?>
<svg xmlns="http://www.w3.org/2000/svg" width="48" height="96" viewBox="0 0 48 96">
  <polygon points="24.0,0 42,24 6,24" fill="#5b4638"/>
  <rect x="8" y="24" width="32" height="72" fill="#d1c7b6" stroke="#7f6b54" stroke-width="2"/>
  <g fill="#b8a791">
    <rect x="8" y="24" width="7" height="7"/>
    <rect x="16" y="24" width="7" height="7"/>
    <rect x="24" y="24" width="7" height="7"/>
    <rect x="32" y="24" width="7" height="7"/>
    <rect x="12" y="32" width="7" height="7"/>
    <rect x="20" y="32" width="7" height="7"/>
    <rect x="28" y="32" width="7" height="7"/>
    <rect x="8" y="40" width="7" height="7"/>
    <rect x="16" y="40" width="7" height="7"/>
    <rect x="24" y="40" width="7" height="7"/>
    <rect x="32" y="40" width="7" height="7"/>
    <rect x="12" y="48" width="7" height="7"/>
    <rect x="20" y="48" width="7" height="7"/>
    <rect x="28" y="48" width="7" height="7"/>
    <rect x="8" y="56" width="7" height="7"/>
    <rect x="16" y="56" width="7" height="7"/>
    <rect x="24" y="56" width="7" height="7"/>
    <rect x="32" y="56" width="7" height="7"/>
    <rect x="12" y="64" width="7" height="7"/>
    <rect x="20" y="64" width="7" height="7"/>
    <rect x="28" y="64" width="7" height="7"/>
    <rect x="8" y="72" width="7" height="7"/>
    <rect x="16" y="72" width="7" height="7"/>
    <rect x="24" y="72" width="7" height="7"/>
    <rect x="32" y="72" width="7" height="7"/>
    <rect x="12" y="80" width="7" height="7"/>
    <rect x="20" y="80" width="7" height="7"/>
    <rect x="28" y="80" width="7" height="7"/>
    <rect x="8" y="88" width="7" height="7"/>
    <rect x="16" y="88" width="7" height="7"/>
    <rect x="24" y="88" width="7" height="7"/>
    <rect x="32" y="88" width="7" height="7"/>
  </g>
  <g fill="#302624">
    <rect x="18.0" y="40" width="12" height="16"/>
    <rect x="18.0" y="64" width="12" height="16"/>
  </g>
</svg>
