<?xml version="1.0" ?>
<svg xmlns="http://www.w3.org/2000/svg" width="60" height="48" viewBox="0 0 60 48">
  <rect x="2" y="12" width="56" height="32" fill="#d5cab8" stroke="#8a7a65" stroke-width="3"/>
  <g fill="#c3b39b">
    <rect x="2" y="12" width="6" height="6"/>
    <rect x="10" y="12" width="6" height="6"/>
    <rect x="18" y="12" width="6" height="6"/>
    <rect x="26" y="12" width="6" height="6"/>
    <rect x="34" y="12" width="6" height="6"/>
    <rect x="42" y="12" width="6" height="6"/>
    <rect x="50" y="12" width="6" height="6"/>
    <rect x="6" y="20" width="6" height="6"/>
    <rect x="14" y="20" width="6" height="6"/>
    <rect x="22" y="20" width="6" height="6"/>
    <rect x="30" y="20" width="6" height="6"/>
    <rect x="38" y="20" width="6" height="6"/>
    <rect x="46" y="20" width="6" height="6"/>
    <rect x="2" y="28" width="6" height="6"/>
    <rect x="10" y="28" width="6" height="6"/>
    <rect x="18" y="28" width="6" height="6"/>
    <rect x="26" y="28" width="6" height="6"/>
    <rect x="34" y="28" width="6" height="6"/>
    <rect x="42" y="28" width="6" height="6"/>
    <rect x="50" y="28" width="6" height="6"/>
    <rect x="6" y="36" width="6" height="6"/>
    <rect x="14" y="36" width="6" height="6"/>
    <rect x="22" y="36" width="6" height="6"/>
    <rect x="30" y="36" width="6" height="6"/>
    <rect x="38" y="36" width="6" height="6"/>
    <rect x="46" y="36" width="6" height="6"/>
  </g>
  <rect x="22.0" y="26" width="16" height="18" fill="#6f352e"/>
  <rect x="14.0" y="22" width="6" height="22" fill="#b18d5c"/>
  <rect x="40.0" y="22" width="6" height="22" fill="#b18d5c"/>
</svg>
