<?xml version="1.0" ?>
<svg xmlns="http://www.w3.org/2000/svg" width="72" height="48" viewBox="0 0 72 48">
  <g fill="#d8d0c2">
    <rect x="0" y="0" width="8" height="8" fill="#f6f2ea"/>
    <rect x="16" y="0" width="8" height="8" fill="#f6f2ea"/>
    <rect x="32" y="0" width="8" height="8" fill="#f6f2ea"/>
    <rect x="48" y="0" width="8" height="8" fill="#f6f2ea"/>
  </g>
  <rect x="0" y="8" width="72" height="40" fill="#d1c7b6" stroke="#7f6b54" stroke-width="2"/>
  <g fill="#b8a791">
    <rect x="0" y="8" width="7" height="7"/>
    <rect x="8" y="8" width="7" height="7"/>
    <rect x="16" y="8" width="7" height="7"/>
    <rect x="24" y="8" width="7" height="7"/>
    <rect x="32" y="8" width="7" height="7"/>
    <rect x="40" y="8" width="7" height="7"/>
    <rect x="48" y="8" width="7" height="7"/>
    <rect x="56" y="8" width="7" height="7"/>
    <rect x="64" y="8" width="7" height="7"/>
    <rect x="4" y="16" width="7" height="7"/>
    <rect x="12" y="16" width="7" height="7"/>
    <rect x="20" y="16" width="7" height="7"/>
    <rect x="28" y="16" width="7" height="7"/>
    <rect x="36" y="16" width="7" height="7"/>
    <rect x="44" y="16" width="7" height="7"/>
    <rect x="52" y="16" width="7" height="7"/>
    <rect x="60" y="16" width="7" height="7"/>
    <rect x="0" y="24" width="7" height="7"/>
    <rect x="8" y="24" width="7" height="7"/>
    <rect x="16" y="24" width="7" height="7"/>
    <rect x="24" y="24" width="7" height="7"/>
    <rect x="32" y="24" width="7" height="7"/>
    <rect x="40" y="24" width="7" height="7"/>
    <rect x="48" y="24" width="7" height="7"/>
    <rect x="56" y="24" width="7" height="7"/>
    <rect x="64" y="24" width="7" height="7"/>
    <rect x="4" y="32" width="7" height="7"/>
    <rect x="12" y="32" width="7" height="7"/>
    <rect x="20" y="32" width="7" height="7"/>
    <rect x="28" y="32" width="7" height="7"/>
    <rect x="36" y="32" width="7" height="7"/>
    <rect x="44" y="32" width="7" height="7"/>
    <rect x="52" y="32" width="7" height="7"/>
    <rect x="60" y="32" width="7" height="7"/>
    <rect x="0" y="40" width="7" height="7"/>
    <rect x="8" y="40" width="7" height="7"/>
    <rect x="16" y="40" width="7" height="7"/>
    <rect x="24" y="40" width="7" height="7"/>
    <rect x="32" y="40" width="7" height="7"/>
    <rect x="40" y="40" width="7" height="7"/>
    <rect x="48" y="40" width="7" height="7"/>
    <rect x="56" y="40" width="7" height="7"/>
    <rect x="64" y="40" width="7" height="7"/>
  </g>
  <g fill="#2e2e2e">
    <rect x="15.0" y="12" width="6" height="4"/>
    <circle cx="18.0" cy="10" r="3" fill="#281f1b"/>
    <rect x="33.0" y="12" width="6" height="4"/>
    <circle cx="36.0" cy="10" r="3" fill="#281f1b"/>
    <rect x="51.0" y="12" width="6" height="4"/>
    <circle cx="54.0" cy="10" r="3" fill="#281f1b"/>
  </g>
</svg>
